<svg viewBox="0 0 1200 14" xmlns="http://www.w3.org/2000/svg">
<line x1="0" y1="7.0" x2="1200" y2="7.0" stroke="#4b0082" stroke-width="1" opacity="0.5"/>
<circle cx="10" cy="7" r="1.6" fill="#9b30ff" opacity="0.7"/><circle cx="37" cy="7" r="1.6" fill="#9b30ff" opacity="0.7"/><circle cx="61" cy="7" r="1.6" fill="#9b30ff" opacity="0.7"/><circle cx="89" cy="7" r="1.6" fill="#9b30ff" opacity="0.7"/><circle cx="121" cy="7" r="1.6" fill="#9b30ff" opacity="0.7"/><circle cx="143" cy="7" r="1.6" fill="#9b30ff" opacity="0.7"/><circle cx="166" cy="7" r="1.6" fill="#9b30ff" opacity="0.7"/><circle cx="196" cy="7" r="1.6" fill="#9b30ff" opacity="0.7"/><circle cx="219" cy="7" r="1.6" fill="#9b30ff" opacity="0.7"/><circle cx="246" cy="7" r="1.6" fill="#9b30ff" opacity="0.7"/><circle cx="277" cy="7" r="1.6" fill="#9b30ff" opacity="0.7"/><circle cx="299" cy="7" r="1.6" fill="#9b30ff" opacity="0.7"/><circle cx="329" cy="7" r="1.6" fill="#9b30ff" opacity="0.7"/><circle cx="354" cy="7" r="1.6" fill="#9b30ff" opacity="0.7"/><circle cx="376" cy="7" r="1.6" fill="#9b30ff" opacity="0.7"/><circle cx="399" cy="7" r="1.6" fill="#9b30ff" opacity="0.7"/><circle cx="427" cy="7" r="1.6" fill="#9b30ff" opacity="0.7"/><circle cx="455" cy="7" r="1.6" fill="#9b30ff" opacity="0.7"/><circle cx="478" cy="7" r="1.6" fill="#9b30ff" opacity="0.7"/><circle cx="503" cy="7" r="1.6" fill="#9b30ff" opacity="0.7"/><circle cx="526" cy="7" r="1.6" fill="#9b30ff" opacity="0.7"/><circle cx="556" cy="7" r="1.6" fill="#9b30ff" opacity="0.7"/><circle cx="584" cy="7" r="1.6" fill="#9b30ff" opacity="0.7"/><circle cx="606" cy="7" r="1.6" fill="#9b30ff" opacity="0.7"/><circle cx="637" cy="7" r="1.6" fill="#9b30ff" opacity="0.7"/><circle cx="660" cy="7" r="1.6" fill="#9b30ff" opacity="0.7"/><circle cx="685" cy="7" r="1.6" fill="#9b30ff" opacity="0.7"/><circle cx="717" cy="7" r="1.6" fill="#9b30ff" opacity="0.7"/><circle cx="749" cy="7" r="1.6" fill="#9b30ff" opacity="0.7"/><circle cx="780" cy="7" r="1.6" fill="#9b30ff" opacity="0.7"/><circle cx="802" cy="7" r="1.6" fill="#9b30ff" opacity="0.7"/><circle cx="833" cy="7" r="1.6" fill="#9b30ff" opacity="0.7"/><circle cx="864" cy="7" r="1.6" fill="#9b30ff" opacity="0.7"/><circle cx="892" cy="7" r="1.6" fill="#9b30ff" opacity="0.7"/><circle cx="914" cy="7" r="1.6" fill="#9b30ff" opacity="0.7"/><circle cx="939" cy="7" r="1.6" fill="#9b30ff" opacity="0.7"/><circle cx="961" cy="7" r="1.6" fill="#9b30ff" opacity="0.7"/><circle cx="991" cy="7" r="1.6" fill="#9b30ff" opacity="0.7"/><circle cx="1015" cy="7" r="1.6" fill="#9b30ff" opacity="0.7"/><circle cx="1041" cy="7" r="1.6" fill="#9b30ff" opacity="0.7"/><circle cx="1069" cy="7" r="1.6" fill="#9b30ff" opacity="0.7"/><circle cx="1093" cy="7" r="1.6" fill="#9b30ff" opacity="0.7"/><circle cx="1123" cy="7" r="1.6" fill="#9b30ff" opacity="0.7"/><circle cx="1146" cy="7" r="1.6" fill="#9b30ff" opacity="0.7"/><circle cx="1177" cy="7" r="1.6" fill="#9b30ff" opacity="0.7"/>
</svg>
